{
    "asset" : {
        "generator" : "Khronos glTF Blender I/O v1.7.33",
        "version" : "2.0"
    },
    "scene" : 0,
    "scenes" : [
        {
            "name" : "Scene",
            "nodes" : [
                0,
                1,
                2,
                3,
                4,
                5
            ]
        }
    ],
    "nodes" : [
        {
            "mesh" : 0,
            "name" : "CP_CockpitWell"
        },
        {
            "mesh" : 1,
            "name" : "CP_LBox"
        },
        {
            "mesh" : 2,
            "name" : "CP_LPFar"
        },
        {
            "mesh" : 3,
            "name" : "CP_LPNear"
        },
        {
            "mesh" : 4,
            "name" : "CP_RBox"
        },
        {
            "mesh" : 5,
            "name" : "CP_RPan"
        }
    ],
    "materials" : [
        {
            "doubleSided" : true,
            "name" : "BlackMetal",
            "pbrMetallicRoughness" : {
                "baseColorTexture" : {
                    "index" : 0
                },
                "metallicRoughnessTexture" : {
                    "index" : 1
                }
            }
        }
    ],
    "meshes" : [
        {
            "name" : "CP_CockpitWell.mesh",
            "primitives" : [
                {
                    "attributes" : {
                        "POSITION" : 0,
                        "NORMAL" : 1,
                        "TEXCOORD_0" : 2
                    },
                    "indices" : 3,
                    "material" : 0
                }
            ]
        },
        {
            "name" : "Cylinder.003",
            "primitives" : [
                {
                    "attributes" : {
                        "POSITION" : 4,
                        "NORMAL" : 5,
                        "TEXCOORD_0" : 6
                    },
                    "indices" : 7,
                    "material" : 0
                }
            ]
        },
        {
            "name" : "Circle.003",
            "primitives" : [
                {
                    "attributes" : {
                        "POSITION" : 8,
                        "NORMAL" : 9,
                        "TEXCOORD_0" : 10
                    },
                    "indices" : 11,
                    "material" : 0
                }
            ]
        },
        {
            "name" : "Circle.004",
            "primitives" : [
                {
                    "attributes" : {
                        "POSITION" : 12,
                        "NORMAL" : 13,
                        "TEXCOORD_0" : 14
                    },
                    "indices" : 15,
                    "material" : 0
                }
            ]
        },
        {
            "name" : "Cylinder.004",
            "primitives" : [
                {
                    "attributes" : {
                        "POSITION" : 16,
                        "NORMAL" : 17,
                        "TEXCOORD_0" : 18
                    },
                    "indices" : 19,
                    "material" : 0
                }
            ]
        },
        {
            "name" : "Cube.001",
            "primitives" : [
                {
                    "attributes" : {
                        "POSITION" : 20,
                        "NORMAL" : 21,
                        "TEXCOORD_0" : 22
                    },
                    "indices" : 23,
                    "material" : 0
                }
            ]
        }
    ],
    "textures" : [
        {
            "sampler" : 0,
            "source" : 0
        },
        {
            "sampler" : 0,
            "source" : 1
        }
    ],
    "images" : [
        {
            "mimeType" : "image/png",
            "name" : "MiG-15bis-Cockpit",
            "uri" : "MiG-15bis-Cockpit.png"
        },
        {
            "mimeType" : "image/png",
            "name" : "MiG-15bis-Cockpit-orm",
            "uri" : "MiG-15bis-Cockpit-orm.png"
        }
    ],
    "accessors" : [
        {
            "bufferView" : 0,
            "componentType" : 5126,
            "count" : 285,
            "max" : [
                2.6298398971557617,
                0.5253000259399414,
                0.6717900037765503
            ],
            "min" : [
                1.1259900331497192,
                -0.5253000259399414,
                -0.28171002864837646
            ],
            "type" : "VEC3"
        },
        {
            "bufferView" : 1,
            "componentType" : 5126,
            "count" : 285,
            "type" : "VEC3"
        },
        {
            "bufferView" : 2,
            "componentType" : 5126,
            "count" : 285,
            "type" : "VEC2"
        },
        {
            "bufferView" : 3,
            "componentType" : 5123,
            "count" : 678,
            "type" : "SCALAR"
        },
        {
            "bufferView" : 4,
            "componentType" : 5126,
            "count" : 1152,
            "max" : [
                1.9825600385665894,
                -0.3027699887752533,
                0.29660001397132874
            ],
            "min" : [
                1.5705499649047852,
                -0.4266499876976013,
                -0.23541001975536346
            ],
            "type" : "VEC3"
        },
        {
            "bufferView" : 5,
            "componentType" : 5126,
            "count" : 1152,
            "type" : "VEC3"
        },
        {
            "bufferView" : 6,
            "componentType" : 5126,
            "count" : 1152,
            "type" : "VEC2"
        },
        {
            "bufferView" : 7,
            "componentType" : 5123,
            "count" : 3783,
            "type" : "SCALAR"
        },
        {
            "bufferView" : 8,
            "componentType" : 5126,
            "count" : 71,
            "max" : [
                1.9495199918746948,
                -0.42621999979019165,
                0.44300997257232666
            ],
            "min" : [
                1.5717799663543701,
                -0.519569993019104,
                0.29722997546195984
            ],
            "type" : "VEC3"
        },
        {
            "bufferView" : 9,
            "componentType" : 5126,
            "count" : 71,
            "type" : "VEC3"
        },
        {
            "bufferView" : 10,
            "componentType" : 5126,
            "count" : 71,
            "type" : "VEC2"
        },
        {
            "bufferView" : 11,
            "componentType" : 5123,
            "count" : 108,
            "type" : "SCALAR"
        },
        {
            "bufferView" : 12,
            "componentType" : 5126,
            "count" : 93,
            "max" : [
                2.191819906234741,
                -0.42621999979019165,
                0.44936996698379517
            ],
            "min" : [
                1.9532699584960938,
                -0.5250599980354309,
                0.29722997546195984
            ],
            "type" : "VEC3"
        },
        {
            "bufferView" : 13,
            "componentType" : 5126,
            "count" : 93,
            "type" : "VEC3"
        },
        {
            "bufferView" : 14,
            "componentType" : 5126,
            "count" : 93,
            "type" : "VEC2"
        },
        {
            "bufferView" : 15,
            "componentType" : 5123,
            "count" : 228,
            "type" : "SCALAR"
        },
        {
            "bufferView" : 16,
            "componentType" : 5126,
            "count" : 3151,
            "max" : [
                1.9825600385665894,
                0.427839994430542,
                0.2966000437736511
            ],
            "min" : [
                1.5705499649047852,
                0.2922300100326538,
                -0.23540998995304108
            ],
            "type" : "VEC3"
        },
        {
            "bufferView" : 17,
            "componentType" : 5126,
            "count" : 3151,
            "type" : "VEC3"
        },
        {
            "bufferView" : 18,
            "componentType" : 5126,
            "count" : 3151,
            "type" : "VEC2"
        },
        {
            "bufferView" : 19,
            "componentType" : 5123,
            "count" : 10104,
            "type" : "SCALAR"
        },
        {
            "bufferView" : 20,
            "componentType" : 5126,
            "count" : 101,
            "max" : [
                1.9822499752044678,
                0.524869978427887,
                0.448790043592453
            ],
            "min" : [
                1.5710599422454834,
                0.38062000274658203,
                0.2787400186061859
            ],
            "type" : "VEC3"
        },
        {
            "bufferView" : 21,
            "componentType" : 5126,
            "count" : 101,
            "type" : "VEC3"
        },
        {
            "bufferView" : 22,
            "componentType" : 5126,
            "count" : 101,
            "type" : "VEC2"
        },
        {
            "bufferView" : 23,
            "componentType" : 5123,
            "count" : 174,
            "type" : "SCALAR"
        }
    ],
    "bufferViews" : [
        {
            "buffer" : 0,
            "byteLength" : 3420,
            "byteOffset" : 0
        },
        {
            "buffer" : 0,
            "byteLength" : 3420,
            "byteOffset" : 3420
        },
        {
            "buffer" : 0,
            "byteLength" : 2280,
            "byteOffset" : 6840
        },
        {
            "buffer" : 0,
            "byteLength" : 1356,
            "byteOffset" : 9120
        },
        {
            "buffer" : 0,
            "byteLength" : 13824,
            "byteOffset" : 10476
        },
        {
            "buffer" : 0,
            "byteLength" : 13824,
            "byteOffset" : 24300
        },
        {
            "buffer" : 0,
            "byteLength" : 9216,
            "byteOffset" : 38124
        },
        {
            "buffer" : 0,
            "byteLength" : 7566,
            "byteOffset" : 47340
        },
        {
            "buffer" : 0,
            "byteLength" : 852,
            "byteOffset" : 54908
        },
        {
            "buffer" : 0,
            "byteLength" : 852,
            "byteOffset" : 55760
        },
        {
            "buffer" : 0,
            "byteLength" : 568,
            "byteOffset" : 56612
        },
        {
            "buffer" : 0,
            "byteLength" : 216,
            "byteOffset" : 57180
        },
        {
            "buffer" : 0,
            "byteLength" : 1116,
            "byteOffset" : 57396
        },
        {
            "buffer" : 0,
            "byteLength" : 1116,
            "byteOffset" : 58512
        },
        {
            "buffer" : 0,
            "byteLength" : 744,
            "byteOffset" : 59628
        },
        {
            "buffer" : 0,
            "byteLength" : 456,
            "byteOffset" : 60372
        },
        {
            "buffer" : 0,
            "byteLength" : 37812,
            "byteOffset" : 60828
        },
        {
            "buffer" : 0,
            "byteLength" : 37812,
            "byteOffset" : 98640
        },
        {
            "buffer" : 0,
            "byteLength" : 25208,
            "byteOffset" : 136452
        },
        {
            "buffer" : 0,
            "byteLength" : 20208,
            "byteOffset" : 161660
        },
        {
            "buffer" : 0,
            "byteLength" : 1212,
            "byteOffset" : 181868
        },
        {
            "buffer" : 0,
            "byteLength" : 1212,
            "byteOffset" : 183080
        },
        {
            "buffer" : 0,
            "byteLength" : 808,
            "byteOffset" : 184292
        },
        {
            "buffer" : 0,
            "byteLength" : 348,
            "byteOffset" : 185100
        }
    ],
    "samplers" : [
        {
            "magFilter" : 9729,
            "minFilter" : 9987
        }
    ],
    "buffers" : [
        {
            "byteLength" : 185448,
            "uri" : "MiG-15bis-Cockpit.bin"
        }
    ]
}
